<mxfile host="Electron" agent="Mozilla/5.0 (Windows NT 10.0; Win64; x64) AppleWebKit/537.36 (KHTML, like Gecko) draw.io/26.0.16 Chrome/132.0.6834.196 Electron/34.2.0 Safari/537.36" version="26.0.16">
  <diagram name="Страница — 1" id="Lae9r_kNuf718TAuMmvB">
    <mxGraphModel dx="1149" dy="789" grid="0" gridSize="10" guides="1" tooltips="1" connect="1" arrows="1" fold="1" page="1" pageScale="1" pageWidth="827" pageHeight="1169" math="0" shadow="0">
      <root>
        <mxCell id="0" />
        <mxCell id="1" parent="0" />
        <mxCell id="AYlUP3hrQS5FX7PXldH9-11" value="Интерфейс зрителя" style="shape=umlBoundary;whiteSpace=wrap;html=1;" parent="1" vertex="1">
          <mxGeometry x="140" y="690" width="100" height="80" as="geometry" />
        </mxCell>
        <mxCell id="AYlUP3hrQS5FX7PXldH9-12" value="Интерфейс админис&lt;span style=&quot;background-color: transparent; color: light-dark(rgb(0, 0, 0), rgb(255, 255, 255));&quot;&gt;тра-&lt;/span&gt;&lt;div&gt;&lt;span style=&quot;background-color: transparent; color: light-dark(rgb(0, 0, 0), rgb(255, 255, 255));&quot;&gt;-тора&amp;nbsp;&lt;/span&gt;&lt;/div&gt;" style="shape=umlBoundary;whiteSpace=wrap;html=1;" parent="1" vertex="1">
          <mxGeometry x="380" y="355" width="100" height="80" as="geometry" />
        </mxCell>
        <mxCell id="AYlUP3hrQS5FX7PXldH9-24" value="Мобильное приложение&lt;div&gt;театра&lt;/div&gt;" style="shape=umlBoundary;whiteSpace=wrap;html=1;" parent="1" vertex="1">
          <mxGeometry x="50" y="810" width="100" height="80" as="geometry" />
        </mxCell>
        <mxCell id="AYlUP3hrQS5FX7PXldH9-25" value="Сайт театра" style="shape=umlBoundary;whiteSpace=wrap;html=1;" parent="1" vertex="1">
          <mxGeometry x="210" y="810" width="100" height="80" as="geometry" />
        </mxCell>
        <mxCell id="AYlUP3hrQS5FX7PXldH9-26" value="" style="endArrow=block;endSize=16;endFill=0;html=1;rounded=0;exitX=0.784;exitY=0.061;exitDx=0;exitDy=0;exitPerimeter=0;entryX=0.338;entryY=0.905;entryDx=0;entryDy=0;entryPerimeter=0;" parent="1" source="AYlUP3hrQS5FX7PXldH9-24" target="AYlUP3hrQS5FX7PXldH9-11" edge="1">
          <mxGeometry width="160" relative="1" as="geometry">
            <mxPoint x="110" y="670" as="sourcePoint" />
            <mxPoint x="270" y="670" as="targetPoint" />
          </mxGeometry>
        </mxCell>
        <mxCell id="AYlUP3hrQS5FX7PXldH9-27" value="" style="endArrow=block;endSize=16;endFill=0;html=1;rounded=0;exitX=0.364;exitY=0.068;exitDx=0;exitDy=0;exitPerimeter=0;entryX=0.847;entryY=0.878;entryDx=0;entryDy=0;entryPerimeter=0;" parent="1" source="AYlUP3hrQS5FX7PXldH9-25" target="AYlUP3hrQS5FX7PXldH9-11" edge="1">
          <mxGeometry width="160" relative="1" as="geometry">
            <mxPoint x="148" y="835" as="sourcePoint" />
            <mxPoint x="185" y="771" as="targetPoint" />
          </mxGeometry>
        </mxCell>
        <mxCell id="AYlUP3hrQS5FX7PXldH9-28" value="Обратная связь по спектаклю" style="shape=umlBoundary;whiteSpace=wrap;html=1;" parent="1" vertex="1">
          <mxGeometry x="280" y="700" width="100" height="80" as="geometry" />
        </mxCell>
        <mxCell id="AYlUP3hrQS5FX7PXldH9-29" value="Отзыв о спектакле" style="ellipse;whiteSpace=wrap;html=1;" parent="1" vertex="1">
          <mxGeometry x="420" y="680" width="70" height="70" as="geometry" />
        </mxCell>
        <mxCell id="AYlUP3hrQS5FX7PXldH9-31" value="" style="endArrow=diamondThin;endFill=1;endSize=24;html=1;rounded=0;exitX=0;exitY=0.5;exitDx=0;exitDy=0;exitPerimeter=0;entryX=1.011;entryY=0.502;entryDx=0;entryDy=0;entryPerimeter=0;" parent="1" source="AYlUP3hrQS5FX7PXldH9-28" target="AYlUP3hrQS5FX7PXldH9-11" edge="1">
          <mxGeometry width="160" relative="1" as="geometry">
            <mxPoint x="213" y="605" as="sourcePoint" />
            <mxPoint x="240" y="720" as="targetPoint" />
          </mxGeometry>
        </mxCell>
        <mxCell id="AYlUP3hrQS5FX7PXldH9-32" value="" style="endArrow=open;endFill=1;endSize=12;html=1;rounded=0;entryX=0;entryY=0.5;entryDx=0;entryDy=0;exitX=0.999;exitY=0.408;exitDx=0;exitDy=0;exitPerimeter=0;" parent="1" source="AYlUP3hrQS5FX7PXldH9-28" target="AYlUP3hrQS5FX7PXldH9-29" edge="1">
          <mxGeometry width="160" relative="1" as="geometry">
            <mxPoint x="40" y="570" as="sourcePoint" />
            <mxPoint x="200" y="570" as="targetPoint" />
          </mxGeometry>
        </mxCell>
        <mxCell id="AYlUP3hrQS5FX7PXldH9-34" value="Расписание театра" style="shape=umlBoundary;whiteSpace=wrap;html=1;" parent="1" vertex="1">
          <mxGeometry x="190" y="535" width="100" height="80" as="geometry" />
        </mxCell>
        <mxCell id="AYlUP3hrQS5FX7PXldH9-35" value="" style="endArrow=diamondThin;endFill=1;endSize=24;html=1;rounded=0;exitX=0.628;exitY=1.003;exitDx=0;exitDy=0;exitPerimeter=0;entryX=0.739;entryY=0.054;entryDx=0;entryDy=0;entryPerimeter=0;" parent="1" source="AYlUP3hrQS5FX7PXldH9-34" target="AYlUP3hrQS5FX7PXldH9-11" edge="1">
          <mxGeometry width="160" relative="1" as="geometry">
            <mxPoint x="474" y="716" as="sourcePoint" />
            <mxPoint x="188" y="690" as="targetPoint" />
          </mxGeometry>
        </mxCell>
        <mxCell id="AYlUP3hrQS5FX7PXldH9-36" value="Система расписания театра" style="ellipse;shape=umlControl;whiteSpace=wrap;html=1;" parent="1" vertex="1">
          <mxGeometry x="190" y="345" width="80" height="90" as="geometry" />
        </mxCell>
        <mxCell id="AYlUP3hrQS5FX7PXldH9-37" value="" style="endArrow=open;endFill=1;endSize=12;html=1;rounded=0;entryX=0.548;entryY=1.003;entryDx=0;entryDy=0;entryPerimeter=0;exitX=0.531;exitY=0.006;exitDx=0;exitDy=0;exitPerimeter=0;" parent="1" source="AYlUP3hrQS5FX7PXldH9-34" target="AYlUP3hrQS5FX7PXldH9-36" edge="1">
          <mxGeometry width="160" relative="1" as="geometry">
            <mxPoint x="223" y="525" as="sourcePoint" />
            <mxPoint x="260" y="395" as="targetPoint" />
          </mxGeometry>
        </mxCell>
        <mxCell id="AYlUP3hrQS5FX7PXldH9-41" value="&amp;nbsp;Создание и утверждение&lt;div&gt;&lt;span style=&quot;background-color: transparent; color: light-dark(rgb(0, 0, 0), rgb(255, 255, 255));&quot;&gt;&amp;nbsp;расписания театра&lt;/span&gt;&lt;/div&gt;" style="shape=umlBoundary;whiteSpace=wrap;html=1;" parent="1" vertex="1">
          <mxGeometry x="270" y="225" width="110" height="90" as="geometry" />
        </mxCell>
        <mxCell id="AYlUP3hrQS5FX7PXldH9-42" value="" style="endArrow=diamondThin;endFill=1;endSize=24;html=1;rounded=0;exitX=0.861;exitY=0.875;exitDx=0;exitDy=0;exitPerimeter=0;entryX=0.344;entryY=0.096;entryDx=0;entryDy=0;entryPerimeter=0;" parent="1" source="AYlUP3hrQS5FX7PXldH9-41" target="AYlUP3hrQS5FX7PXldH9-12" edge="1">
          <mxGeometry width="160" relative="1" as="geometry">
            <mxPoint x="270" y="575" as="sourcePoint" />
            <mxPoint x="364" y="405" as="targetPoint" />
          </mxGeometry>
        </mxCell>
        <mxCell id="AYlUP3hrQS5FX7PXldH9-43" value="" style="endArrow=open;endFill=1;endSize=12;html=1;rounded=0;entryX=0.915;entryY=0.317;entryDx=0;entryDy=0;entryPerimeter=0;exitX=0.252;exitY=0.809;exitDx=0;exitDy=0;exitPerimeter=0;" parent="1" source="AYlUP3hrQS5FX7PXldH9-41" target="AYlUP3hrQS5FX7PXldH9-36" edge="1">
          <mxGeometry width="160" relative="1" as="geometry">
            <mxPoint x="320" y="665" as="sourcePoint" />
            <mxPoint x="480" y="665" as="targetPoint" />
          </mxGeometry>
        </mxCell>
        <mxCell id="AYlUP3hrQS5FX7PXldH9-45" value="Интерфейс актёра" style="shape=umlBoundary;whiteSpace=wrap;html=1;" parent="1" vertex="1">
          <mxGeometry x="350" y="550" width="100" height="80" as="geometry" />
        </mxCell>
        <mxCell id="AYlUP3hrQS5FX7PXldH9-46" value="Утверждение изменений в расписании" style="shape=umlBoundary;whiteSpace=wrap;html=1;" parent="1" vertex="1">
          <mxGeometry x="480" y="245" width="100" height="80" as="geometry" />
        </mxCell>
        <mxCell id="AYlUP3hrQS5FX7PXldH9-47" value="&lt;font style=&quot;font-size: 11px;&quot;&gt;Система связи актёра и администрации&lt;/font&gt;" style="ellipse;shape=umlControl;whiteSpace=wrap;html=1;" parent="1" vertex="1">
          <mxGeometry x="580" y="355" width="90" height="100" as="geometry" />
        </mxCell>
        <mxCell id="AYlUP3hrQS5FX7PXldH9-48" value="" style="endArrow=diamondThin;endFill=1;endSize=24;html=1;rounded=0;exitX=0.292;exitY=0.87;exitDx=0;exitDy=0;exitPerimeter=0;entryX=0.902;entryY=0.17;entryDx=0;entryDy=0;entryPerimeter=0;" parent="1" source="AYlUP3hrQS5FX7PXldH9-46" target="AYlUP3hrQS5FX7PXldH9-12" edge="1">
          <mxGeometry width="160" relative="1" as="geometry">
            <mxPoint x="366" y="325" as="sourcePoint" />
            <mxPoint x="397" y="426" as="targetPoint" />
          </mxGeometry>
        </mxCell>
        <mxCell id="AYlUP3hrQS5FX7PXldH9-49" value="" style="endArrow=open;endFill=1;endSize=12;html=1;rounded=0;entryX=0.383;entryY=0.143;entryDx=0;entryDy=0;entryPerimeter=0;exitX=0.952;exitY=0.737;exitDx=0;exitDy=0;exitPerimeter=0;" parent="1" source="AYlUP3hrQS5FX7PXldH9-46" target="AYlUP3hrQS5FX7PXldH9-47" edge="1">
          <mxGeometry width="160" relative="1" as="geometry">
            <mxPoint x="500" y="375" as="sourcePoint" />
            <mxPoint x="510" y="445" as="targetPoint" />
          </mxGeometry>
        </mxCell>
        <mxCell id="AYlUP3hrQS5FX7PXldH9-51" value="Запрос на изменение расписания" style="shape=umlBoundary;whiteSpace=wrap;html=1;" parent="1" vertex="1">
          <mxGeometry x="510" y="525" width="100" height="80" as="geometry" />
        </mxCell>
        <mxCell id="AYlUP3hrQS5FX7PXldH9-52" value="" style="endArrow=diamondThin;endFill=1;endSize=24;html=1;rounded=0;exitX=-0.013;exitY=0.513;exitDx=0;exitDy=0;exitPerimeter=0;entryX=0.995;entryY=0.462;entryDx=0;entryDy=0;entryPerimeter=0;" parent="1" source="AYlUP3hrQS5FX7PXldH9-51" target="AYlUP3hrQS5FX7PXldH9-45" edge="1">
          <mxGeometry width="160" relative="1" as="geometry">
            <mxPoint x="469" y="555" as="sourcePoint" />
            <mxPoint x="399" y="655" as="targetPoint" />
          </mxGeometry>
        </mxCell>
        <mxCell id="AYlUP3hrQS5FX7PXldH9-53" value="" style="endArrow=diamondThin;endFill=1;endSize=24;html=1;rounded=0;exitX=0.996;exitY=0.545;exitDx=0;exitDy=0;exitPerimeter=0;entryX=0;entryY=0.5;entryDx=0;entryDy=0;entryPerimeter=0;" parent="1" source="AYlUP3hrQS5FX7PXldH9-34" target="AYlUP3hrQS5FX7PXldH9-45" edge="1">
          <mxGeometry width="160" relative="1" as="geometry">
            <mxPoint x="509" y="544" as="sourcePoint" />
            <mxPoint x="458" y="599" as="targetPoint" />
          </mxGeometry>
        </mxCell>
        <mxCell id="AYlUP3hrQS5FX7PXldH9-54" value="" style="endArrow=open;endFill=1;endSize=12;html=1;rounded=0;entryX=0.266;entryY=0.954;entryDx=0;entryDy=0;entryPerimeter=0;exitX=0.779;exitY=0.064;exitDx=0;exitDy=0;exitPerimeter=0;" parent="1" source="AYlUP3hrQS5FX7PXldH9-51" target="AYlUP3hrQS5FX7PXldH9-47" edge="1">
          <mxGeometry width="160" relative="1" as="geometry">
            <mxPoint x="252" y="551" as="sourcePoint" />
            <mxPoint x="199" y="440" as="targetPoint" />
          </mxGeometry>
        </mxCell>
        <mxCell id="La-TRNCOd_0NJCZ-uN-B-1" value="Оплата билетов" style="shape=umlBoundary;whiteSpace=wrap;html=1;" parent="1" vertex="1">
          <mxGeometry x="51" y="550" width="100" height="80" as="geometry" />
        </mxCell>
        <mxCell id="La-TRNCOd_0NJCZ-uN-B-2" value="" style="endArrow=diamondThin;endFill=1;endSize=24;html=1;rounded=0;exitX=0.925;exitY=0.804;exitDx=0;exitDy=0;exitPerimeter=0;entryX=0.247;entryY=0.186;entryDx=0;entryDy=0;entryPerimeter=0;" parent="1" source="La-TRNCOd_0NJCZ-uN-B-1" target="AYlUP3hrQS5FX7PXldH9-11" edge="1">
          <mxGeometry width="160" relative="1" as="geometry">
            <mxPoint x="180" y="570" as="sourcePoint" />
            <mxPoint x="340" y="570" as="targetPoint" />
          </mxGeometry>
        </mxCell>
        <mxCell id="La-TRNCOd_0NJCZ-uN-B-3" value="Администратор" style="shape=umlActor;verticalLabelPosition=bottom;verticalAlign=top;html=1;" parent="1" vertex="1">
          <mxGeometry x="58" y="1249" width="30" height="60" as="geometry" />
        </mxCell>
        <mxCell id="La-TRNCOd_0NJCZ-uN-B-4" value="Актёр" style="shape=umlActor;verticalLabelPosition=bottom;verticalAlign=top;html=1;" parent="1" vertex="1">
          <mxGeometry x="38" y="1368" width="30" height="60" as="geometry" />
        </mxCell>
        <mxCell id="La-TRNCOd_0NJCZ-uN-B-5" value="Зритель" style="shape=umlActor;verticalLabelPosition=bottom;verticalAlign=top;html=1;" parent="1" vertex="1">
          <mxGeometry x="69" y="1499" width="30" height="60" as="geometry" />
        </mxCell>
        <mxCell id="La-TRNCOd_0NJCZ-uN-B-6" value="&lt;div&gt;&lt;span style=&quot;font-family: &amp;quot;Times New Roman&amp;quot;, serif;&quot;&gt;&lt;font style=&quot;font-size: 14px;&quot;&gt;Интерфейс&lt;/font&gt;&lt;/span&gt;&lt;/div&gt;&lt;span style=&quot;font-family: &amp;quot;Times New Roman&amp;quot;, serif;&quot;&gt;&lt;font style=&quot;font-size: 14px;&quot;&gt;организации составления расписания&lt;/font&gt;&lt;br&gt;&lt;/span&gt;" style="shape=umlBoundary;whiteSpace=wrap;html=1;" parent="1" vertex="1">
          <mxGeometry x="178" y="1359" width="110" height="85" as="geometry" />
        </mxCell>
        <mxCell id="La-TRNCOd_0NJCZ-uN-B-7" value="" style="endArrow=none;dashed=1;endFill=0;endSize=12;html=1;rounded=0;startFill=0;entryX=0.25;entryY=0.203;entryDx=0;entryDy=0;entryPerimeter=0;" parent="1" source="La-TRNCOd_0NJCZ-uN-B-3" target="La-TRNCOd_0NJCZ-uN-B-6" edge="1">
          <mxGeometry width="160" relative="1" as="geometry">
            <mxPoint x="248" y="1439" as="sourcePoint" />
            <mxPoint x="208" y="1379" as="targetPoint" />
          </mxGeometry>
        </mxCell>
        <mxCell id="La-TRNCOd_0NJCZ-uN-B-8" value="" style="endArrow=none;dashed=1;endFill=0;endSize=12;html=1;rounded=0;startFill=0;entryX=-0.001;entryY=0.5;entryDx=0;entryDy=0;entryPerimeter=0;" parent="1" source="La-TRNCOd_0NJCZ-uN-B-4" target="La-TRNCOd_0NJCZ-uN-B-6" edge="1">
          <mxGeometry width="160" relative="1" as="geometry">
            <mxPoint x="98" y="1300" as="sourcePoint" />
            <mxPoint x="216" y="1387" as="targetPoint" />
          </mxGeometry>
        </mxCell>
        <mxCell id="La-TRNCOd_0NJCZ-uN-B-9" value="" style="endArrow=none;dashed=1;endFill=0;endSize=12;html=1;rounded=0;startFill=0;entryX=0.289;entryY=0.853;entryDx=0;entryDy=0;entryPerimeter=0;" parent="1" source="La-TRNCOd_0NJCZ-uN-B-5" target="La-TRNCOd_0NJCZ-uN-B-6" edge="1">
          <mxGeometry width="160" relative="1" as="geometry">
            <mxPoint x="108" y="1310" as="sourcePoint" />
            <mxPoint x="226" y="1397" as="targetPoint" />
          </mxGeometry>
        </mxCell>
        <mxCell id="La-TRNCOd_0NJCZ-uN-B-10" value="Система расписания театра" style="ellipse;shape=umlControl;whiteSpace=wrap;html=1;" parent="1" vertex="1">
          <mxGeometry x="378" y="1234" width="80" height="90" as="geometry" />
        </mxCell>
        <mxCell id="La-TRNCOd_0NJCZ-uN-B-11" value="&lt;font style=&quot;font-size: 11px;&quot;&gt;Система связи актёра и администрации&lt;/font&gt;" style="ellipse;shape=umlControl;whiteSpace=wrap;html=1;" parent="1" vertex="1">
          <mxGeometry x="423" y="1324" width="90" height="90" as="geometry" />
        </mxCell>
        <mxCell id="La-TRNCOd_0NJCZ-uN-B-13" value="" style="endArrow=none;endFill=1;endSize=12;html=1;rounded=0;startFill=0;entryX=0.111;entryY=0.836;entryDx=0;entryDy=0;entryPerimeter=0;exitX=0.919;exitY=0.204;exitDx=0;exitDy=0;exitPerimeter=0;" parent="1" source="La-TRNCOd_0NJCZ-uN-B-6" target="La-TRNCOd_0NJCZ-uN-B-10" edge="1">
          <mxGeometry width="160" relative="1" as="geometry">
            <mxPoint x="218" y="1434" as="sourcePoint" />
            <mxPoint x="378" y="1434" as="targetPoint" />
          </mxGeometry>
        </mxCell>
        <mxCell id="La-TRNCOd_0NJCZ-uN-B-14" value="" style="endArrow=none;endFill=1;endSize=12;html=1;rounded=0;startFill=0;entryX=0;entryY=0.51;entryDx=0;entryDy=0;entryPerimeter=0;exitX=0.995;exitY=0.5;exitDx=0;exitDy=0;exitPerimeter=0;" parent="1" source="La-TRNCOd_0NJCZ-uN-B-6" target="La-TRNCOd_0NJCZ-uN-B-11" edge="1">
          <mxGeometry width="160" relative="1" as="geometry">
            <mxPoint x="289" y="1387" as="sourcePoint" />
            <mxPoint x="397" y="1319" as="targetPoint" />
          </mxGeometry>
        </mxCell>
        <mxCell id="La-TRNCOd_0NJCZ-uN-B-19" value="Система обратной связи по спектаклю" style="ellipse;shape=umlControl;whiteSpace=wrap;html=1;" parent="1" vertex="1">
          <mxGeometry x="433" y="1449" width="80" height="80" as="geometry" />
        </mxCell>
        <mxCell id="La-TRNCOd_0NJCZ-uN-B-21" value="" style="endArrow=openThin;dashed=1;endFill=0;endSize=12;html=1;rounded=0;exitX=0.995;exitY=0.617;exitDx=0;exitDy=0;exitPerimeter=0;" parent="1" source="La-TRNCOd_0NJCZ-uN-B-19" target="La-TRNCOd_0NJCZ-uN-B-22" edge="1">
          <mxGeometry width="160" relative="1" as="geometry">
            <mxPoint x="368" y="1504" as="sourcePoint" />
            <mxPoint x="588" y="1644" as="targetPoint" />
          </mxGeometry>
        </mxCell>
        <mxCell id="La-TRNCOd_0NJCZ-uN-B-22" value="Отзыв о спектакле" style="ellipse;shape=umlEntity;whiteSpace=wrap;html=1;" parent="1" vertex="1">
          <mxGeometry x="623" y="1459" width="70" height="70" as="geometry" />
        </mxCell>
        <mxCell id="La-TRNCOd_0NJCZ-uN-B-24" value="" style="endArrow=openThin;dashed=1;endFill=0;endSize=12;html=1;rounded=0;exitX=0.915;exitY=0.294;exitDx=0;exitDy=0;exitPerimeter=0;entryX=0;entryY=0.5;entryDx=0;entryDy=0;" parent="1" source="La-TRNCOd_0NJCZ-uN-B-10" target="La-TRNCOd_0NJCZ-uN-B-26" edge="1">
          <mxGeometry width="160" relative="1" as="geometry">
            <mxPoint x="488" y="1184" as="sourcePoint" />
            <mxPoint x="520.1446485039355" y="1236.921778635676" as="targetPoint" />
          </mxGeometry>
        </mxCell>
        <mxCell id="La-TRNCOd_0NJCZ-uN-B-26" value="Расписание спектаклей" style="ellipse;shape=umlEntity;whiteSpace=wrap;html=1;" parent="1" vertex="1">
          <mxGeometry x="538" y="1184" width="80" height="80" as="geometry" />
        </mxCell>
        <mxCell id="La-TRNCOd_0NJCZ-uN-B-27" value="Система бронирования билетов" style="ellipse;shape=umlControl;whiteSpace=wrap;html=1;" parent="1" vertex="1">
          <mxGeometry x="408" y="1559" width="80" height="80" as="geometry" />
        </mxCell>
        <mxCell id="La-TRNCOd_0NJCZ-uN-B-28" value="" style="endArrow=none;endFill=1;endSize=12;html=1;rounded=0;startFill=0;entryX=0;entryY=0.438;entryDx=0;entryDy=0;entryPerimeter=0;exitX=0.923;exitY=0.816;exitDx=0;exitDy=0;exitPerimeter=0;" parent="1" source="La-TRNCOd_0NJCZ-uN-B-6" target="La-TRNCOd_0NJCZ-uN-B-19" edge="1">
          <mxGeometry width="160" relative="1" as="geometry">
            <mxPoint x="297" y="1414" as="sourcePoint" />
            <mxPoint x="443" y="1415" as="targetPoint" />
          </mxGeometry>
        </mxCell>
        <mxCell id="La-TRNCOd_0NJCZ-uN-B-29" value="" style="endArrow=none;endFill=1;endSize=12;html=1;rounded=0;startFill=0;entryX=0.129;entryY=0.288;entryDx=0;entryDy=0;entryPerimeter=0;exitX=0.791;exitY=0.965;exitDx=0;exitDy=0;exitPerimeter=0;" parent="1" source="La-TRNCOd_0NJCZ-uN-B-6" target="La-TRNCOd_0NJCZ-uN-B-27" edge="1">
          <mxGeometry width="160" relative="1" as="geometry">
            <mxPoint x="290" y="1442" as="sourcePoint" />
            <mxPoint x="443" y="1509" as="targetPoint" />
          </mxGeometry>
        </mxCell>
        <mxCell id="La-TRNCOd_0NJCZ-uN-B-31" value="" style="endArrow=openThin;dashed=1;endFill=0;endSize=12;html=1;rounded=0;exitX=0.943;exitY=0.344;exitDx=0;exitDy=0;exitPerimeter=0;entryX=0.021;entryY=0.666;entryDx=0;entryDy=0;entryPerimeter=0;" parent="1" source="La-TRNCOd_0NJCZ-uN-B-11" target="La-TRNCOd_0NJCZ-uN-B-32" edge="1">
          <mxGeometry width="160" relative="1" as="geometry">
            <mxPoint x="548" y="1434.01" as="sourcePoint" />
            <mxPoint x="555.0000000000007" y="1320.5" as="targetPoint" />
          </mxGeometry>
        </mxCell>
        <mxCell id="La-TRNCOd_0NJCZ-uN-B-32" value="Запрос на изменение в расписании" style="ellipse;shape=umlEntity;whiteSpace=wrap;html=1;" parent="1" vertex="1">
          <mxGeometry x="593" y="1290" width="80" height="75" as="geometry" />
        </mxCell>
        <mxCell id="La-TRNCOd_0NJCZ-uN-B-33" value="" style="endArrow=openThin;dashed=1;endFill=0;endSize=12;html=1;rounded=0;exitX=0.987;exitY=0.678;exitDx=0;exitDy=0;exitPerimeter=0;entryX=0;entryY=0.5;entryDx=0;entryDy=0;" parent="1" source="La-TRNCOd_0NJCZ-uN-B-11" target="3oEZIfhFD1XG3LHfFQwg-4" edge="1">
          <mxGeometry width="160" relative="1" as="geometry">
            <mxPoint x="528" y="1379" as="sourcePoint" />
            <mxPoint x="588" y="1406" as="targetPoint" />
          </mxGeometry>
        </mxCell>
        <mxCell id="La-TRNCOd_0NJCZ-uN-B-34" value="" style="endArrow=openThin;dashed=1;endFill=0;endSize=12;html=1;rounded=0;exitX=1.003;exitY=0.638;exitDx=0;exitDy=0;exitPerimeter=0;entryX=0;entryY=0.5;entryDx=0;entryDy=0;" parent="1" source="La-TRNCOd_0NJCZ-uN-B-27" target="La-TRNCOd_0NJCZ-uN-B-37" edge="1">
          <mxGeometry width="160" relative="1" as="geometry">
            <mxPoint x="521" y="1514" as="sourcePoint" />
            <mxPoint x="558" y="1624" as="targetPoint" />
          </mxGeometry>
        </mxCell>
        <mxCell id="La-TRNCOd_0NJCZ-uN-B-35" value="Рейтинг спектакля" style="ellipse;shape=umlEntity;whiteSpace=wrap;html=1;" parent="1" vertex="1">
          <mxGeometry x="623" y="1544" width="70" height="70" as="geometry" />
        </mxCell>
        <mxCell id="La-TRNCOd_0NJCZ-uN-B-36" value="" style="endArrow=openThin;dashed=1;endFill=0;endSize=12;html=1;rounded=0;exitX=0.933;exitY=0.814;exitDx=0;exitDy=0;exitPerimeter=0;entryX=0;entryY=0.429;entryDx=0;entryDy=0;entryPerimeter=0;" parent="1" source="La-TRNCOd_0NJCZ-uN-B-19" target="La-TRNCOd_0NJCZ-uN-B-35" edge="1">
          <mxGeometry width="160" relative="1" as="geometry">
            <mxPoint x="523" y="1508" as="sourcePoint" />
            <mxPoint x="623" y="1516" as="targetPoint" />
          </mxGeometry>
        </mxCell>
        <mxCell id="La-TRNCOd_0NJCZ-uN-B-37" value="Билет в электронном виде" style="ellipse;shape=umlEntity;whiteSpace=wrap;html=1;" parent="1" vertex="1">
          <mxGeometry x="593" y="1624" width="75" height="70" as="geometry" />
        </mxCell>
        <mxCell id="3oEZIfhFD1XG3LHfFQwg-2" value="" style="endArrow=diamondThin;endFill=1;endSize=24;html=1;rounded=0;entryX=1;entryY=1;entryDx=0;entryDy=0;exitX=0.5;exitY=0;exitDx=0;exitDy=0;" edge="1" parent="1" source="La-TRNCOd_0NJCZ-uN-B-32" target="La-TRNCOd_0NJCZ-uN-B-26">
          <mxGeometry width="160" relative="1" as="geometry">
            <mxPoint x="690" y="1380" as="sourcePoint" />
            <mxPoint x="504" y="1392" as="targetPoint" />
            <Array as="points" />
          </mxGeometry>
        </mxCell>
        <mxCell id="3oEZIfhFD1XG3LHfFQwg-3" value="Актёр" style="ellipse;shape=umlEntity;whiteSpace=wrap;html=1;" vertex="1" parent="1">
          <mxGeometry x="731" y="1369" width="80" height="80" as="geometry" />
        </mxCell>
        <mxCell id="3oEZIfhFD1XG3LHfFQwg-4" value="&lt;font style=&quot;font-size: 10px;&quot;&gt;Уведомление о назаначении на спектакль&lt;/font&gt;&lt;div&gt;&lt;font style=&quot;font-size: 10px;&quot;&gt;актёра&lt;/font&gt;&lt;/div&gt;" style="ellipse;shape=umlEntity;whiteSpace=wrap;html=1;" vertex="1" parent="1">
          <mxGeometry x="580" y="1378" width="82" height="77" as="geometry" />
        </mxCell>
        <mxCell id="3oEZIfhFD1XG3LHfFQwg-7" value="" style="endArrow=diamondThin;endFill=0;endSize=24;html=1;rounded=0;entryX=1;entryY=0.5;entryDx=0;entryDy=0;exitX=0;exitY=0.5;exitDx=0;exitDy=0;" edge="1" parent="1" source="3oEZIfhFD1XG3LHfFQwg-3" target="3oEZIfhFD1XG3LHfFQwg-4">
          <mxGeometry width="160" relative="1" as="geometry">
            <mxPoint x="542" y="1433" as="sourcePoint" />
            <mxPoint x="702" y="1433" as="targetPoint" />
          </mxGeometry>
        </mxCell>
        <mxCell id="3oEZIfhFD1XG3LHfFQwg-8" value="Спектакль" style="ellipse;shape=umlEntity;whiteSpace=wrap;html=1;" vertex="1" parent="1">
          <mxGeometry x="913" y="1400" width="80" height="80" as="geometry" />
        </mxCell>
        <mxCell id="3oEZIfhFD1XG3LHfFQwg-9" value="" style="endArrow=diamondThin;endFill=0;endSize=24;html=1;rounded=0;entryX=0;entryY=0.5;entryDx=0;entryDy=0;exitX=1;exitY=0.5;exitDx=0;exitDy=0;" edge="1" parent="1" source="La-TRNCOd_0NJCZ-uN-B-22" target="3oEZIfhFD1XG3LHfFQwg-8">
          <mxGeometry width="160" relative="1" as="geometry">
            <mxPoint x="770" y="1510" as="sourcePoint" />
            <mxPoint x="710" y="1507" as="targetPoint" />
          </mxGeometry>
        </mxCell>
        <mxCell id="3oEZIfhFD1XG3LHfFQwg-10" value="" style="endArrow=diamondThin;endFill=0;endSize=24;html=1;rounded=0;entryX=0;entryY=1;entryDx=0;entryDy=0;exitX=1;exitY=0.5;exitDx=0;exitDy=0;" edge="1" parent="1" source="La-TRNCOd_0NJCZ-uN-B-35" target="3oEZIfhFD1XG3LHfFQwg-8">
          <mxGeometry width="160" relative="1" as="geometry">
            <mxPoint x="693" y="1584" as="sourcePoint" />
            <mxPoint x="855" y="1574" as="targetPoint" />
          </mxGeometry>
        </mxCell>
        <mxCell id="3oEZIfhFD1XG3LHfFQwg-11" value="" style="endArrow=diamondThin;endFill=0;endSize=24;html=1;rounded=0;entryX=0;entryY=0;entryDx=0;entryDy=0;exitX=1;exitY=0.5;exitDx=0;exitDy=0;" edge="1" parent="1" source="La-TRNCOd_0NJCZ-uN-B-26" target="3oEZIfhFD1XG3LHfFQwg-8">
          <mxGeometry width="160" relative="1" as="geometry">
            <mxPoint x="703" y="1504" as="sourcePoint" />
            <mxPoint x="923" y="1450" as="targetPoint" />
          </mxGeometry>
        </mxCell>
        <mxCell id="3oEZIfhFD1XG3LHfFQwg-12" value="" style="endArrow=diamondThin;endFill=0;endSize=24;html=1;rounded=0;entryX=0.5;entryY=1;entryDx=0;entryDy=0;exitX=1;exitY=0.5;exitDx=0;exitDy=0;" edge="1" parent="1" source="La-TRNCOd_0NJCZ-uN-B-37" target="3oEZIfhFD1XG3LHfFQwg-8">
          <mxGeometry width="160" relative="1" as="geometry">
            <mxPoint x="703" y="1589" as="sourcePoint" />
            <mxPoint x="935" y="1478" as="targetPoint" />
          </mxGeometry>
        </mxCell>
      </root>
    </mxGraphModel>
  </diagram>
</mxfile>
